# Blender 4.1.1
# www.blender.org
mtllib Nube03.mtl
o Nube.006
v -5.745982 6.803595 -13.302834
v -5.686872 6.672427 -13.302834
v -5.825686 6.400653 -13.302834
v -5.703240 6.520821 -13.302834
v -5.972620 6.359210 -13.302834
v -6.159115 6.395001 -13.302834
v -6.353144 6.321534 -13.302834
v -6.639479 6.268788 -13.302834
v -6.897556 6.261253 -13.302834
v -7.183891 6.298929 -13.302834
v -7.266777 6.323418 -13.302834
v -7.383571 6.251834 -13.302834
v -7.557080 6.220287 -13.302834
v -7.765290 6.236061 -13.302834
v -7.992429 6.340166 -13.302834
v -8.096535 6.419034 -13.302834
v -8.194330 6.620934 -13.302834
v -8.200640 6.778670 -13.302834
v -8.134391 6.930096 -13.302834
v -8.077606 6.993189 -13.302834
v -7.954573 7.059438 -13.302834
v -7.844158 7.081522 -13.302834
v -7.667495 7.084676 -13.302834
v -7.623329 7.160389 -13.302834
v -7.512914 7.289732 -13.302834
v -7.364643 7.390682 -13.302834
v -7.165897 7.434848 -13.302834
v -6.957686 7.406456 -13.302834
v -6.806261 7.343362 -13.302834
v -6.689537 7.270804 -13.302834
v -6.626442 7.198246 -13.302834
v -6.452934 7.150925 -13.302834
v -6.301508 7.081522 -13.302834
v -6.184784 6.996345 -13.302834
v -6.115380 6.923786 -13.302834
v -5.979728 6.911168 -13.302834
v -5.840622 6.870668 -13.302834
v -5.745982 6.803595 -13.114791
v -5.686872 6.672427 -13.114791
v -5.825686 6.400653 -13.114791
v -5.703240 6.520821 -13.114791
v -5.972620 6.359210 -13.114791
v -6.159115 6.395001 -13.114791
v -6.353144 6.321534 -13.114791
v -6.639479 6.268788 -13.114791
v -6.897556 6.261253 -13.114791
v -7.183891 6.298929 -13.114791
v -7.266777 6.323418 -13.114791
v -7.383571 6.251834 -13.114791
v -7.557080 6.220287 -13.114791
v -7.765290 6.236061 -13.114791
v -7.992429 6.340166 -13.114791
v -8.096535 6.419034 -13.114791
v -8.194330 6.620934 -13.114791
v -8.200640 6.778670 -13.114791
v -8.134391 6.930096 -13.114791
v -8.077606 6.993189 -13.114791
v -7.954573 7.059438 -13.114791
v -7.844158 7.081522 -13.114791
v -7.667495 7.084676 -13.114791
v -7.623329 7.160389 -13.114791
v -7.512914 7.289732 -13.114791
v -7.364643 7.390682 -13.114791
v -7.165897 7.434848 -13.114791
v -6.957686 7.406456 -13.114791
v -6.806261 7.343362 -13.114791
v -6.689537 7.270804 -13.114791
v -6.626442 7.198246 -13.114791
v -6.452934 7.150925 -13.114791
v -6.301508 7.081522 -13.114791
v -6.184784 6.996345 -13.114791
v -6.115380 6.923786 -13.114791
v -5.979728 6.911168 -13.114791
v -5.840622 6.870668 -13.114791
vn -0.0000 -0.0000 -1.0000
vn -0.0000 -0.0000 1.0000
vn 0.3541 -0.9352 -0.0000
vn 0.2687 -0.9632 -0.0000
vn 0.5056 0.8628 -0.0000
vn 0.6586 0.7525 -0.0000
vn -0.6178 0.7863 -0.0000
vn -0.3388 0.9408 -0.0000
vn 0.1055 -0.9944 -0.0000
vn 0.7226 0.6912 -0.0000
vn -0.1074 0.9942 -0.0000
vn -0.0508 -0.9987 -0.0000
vn 0.0926 0.9957 -0.0000
vn 0.1869 0.9824 -0.0000
vn -0.0179 0.9998 -0.0000
vn -0.2075 -0.9782 -0.0000
vn 0.4349 0.9005 -0.0000
vn -0.8638 0.5039 -0.0000
vn -0.8154 0.5789 -0.0000
vn -0.2833 -0.9590 -0.0000
vn 0.5782 0.8159 -0.0000
vn -0.6676 0.7445 -0.0000
vn 0.5226 -0.8526 -0.0000
vn 0.3568 -0.9342 -0.0000
vn -0.3970 0.9178 -0.0000
vn 0.0521 -0.9986 -0.0000
vn -0.0416 0.9991 -0.0000
vn -0.2500 -0.9682 -0.0000
vn 0.2621 0.9651 -0.0000
vn -0.5133 -0.8582 -0.0000
vn 0.5016 -0.8651 -0.0000
vn 0.0426 -0.9991 -0.0000
vn 0.4578 0.8891 -0.0000
vn -0.7733 -0.6340 -0.0000
vn 0.9117 0.4109 -0.0000
vn 0.6485 0.7612 -0.0000
vn -0.9700 -0.2431 -0.0000
vn 0.9942 -0.1073 -0.0000
vn 0.7546 0.6562 -0.0000
vn -0.9827 0.1851 -0.0000
vn 0.7004 -0.7137 -0.0000
vn 0.2631 0.9648 -0.0000
vn 0.3410 0.9401 -0.0000
vn -0.8405 0.5418 -0.0000
vn -0.1885 -0.9821 -0.0000
vt 0.161337 0.534587
vt 0.178097 0.528011
vt 0.199327 0.533907
vt 0.221468 0.522204
vt 0.254115 0.513903
vt 0.283521 0.512868
vt 0.316124 0.519136
vt 0.325556 0.523139
vt 0.338897 0.511686
vt 0.358680 0.506723
vt 0.382393 0.509409
vt 0.408220 0.526340
vt 0.420042 0.539120
vt 0.431085 0.571719
vt 0.431726 0.597138
vt 0.424104 0.621491
vt 0.417604 0.631618
vt 0.403555 0.642207
vt 0.390965 0.645689
vt 0.370836 0.646075
vt 0.365768 0.658243
vt 0.353125 0.679007
vt 0.336183 0.695171
vt 0.313519 0.702149
vt 0.289812 0.697431
vt 0.272591 0.687160
vt 0.259328 0.675388
vt 0.252176 0.663653
vt 0.232431 0.655909
vt 0.215214 0.644621
vt 0.201957 0.630816
vt 0.194086 0.619078
vt 0.178637 0.616951
vt 0.162809 0.610329
vt 0.152059 0.599456
vt 0.145389 0.578281
vt 0.147328 0.553864
vt 0.160278 0.537052
vt 0.146423 0.556735
vt 0.144752 0.581307
vt 0.151692 0.602428
vt 0.162613 0.613107
vt 0.178589 0.619401
vt 0.194132 0.621188
vt 0.202173 0.632803
vt 0.215646 0.646371
vt 0.233070 0.657320
vt 0.252993 0.664653
vt 0.260311 0.676280
vt 0.273768 0.687805
vt 0.291184 0.697733
vt 0.315053 0.701937
vt 0.337742 0.694413
vt 0.354578 0.677792
vt 0.367044 0.656647
vt 0.371998 0.644308
vt 0.392214 0.643465
vt 0.404822 0.639682
vt 0.418816 0.628726
vt 0.425232 0.618406
vt 0.432612 0.593769
vt 0.431680 0.568248
vt 0.420218 0.535749
vt 0.408197 0.523179
vt 0.382061 0.506755
vt 0.358209 0.504594
vt 0.338391 0.510027
vt 0.325118 0.521835
vt 0.315599 0.518027
vt 0.282776 0.512468
vt 0.253247 0.514174
vt 0.220544 0.523251
vt 0.198434 0.535509
vt 0.177040 0.530067
vt 0.000000 0.000000
s 1
g Nube.006_Material.003
usemtl Material.003
f 3/1/1 5/2/1 6/3/1 7/4/1 8/5/1 9/6/1 10/7/1 11/8/1 12/9/1 13/10/1 14/11/1 15/12/1 16/13/1 17/14/1 18/15/1 19/16/1 20/17/1 21/18/1 22/19/1 23/20/1 24/21/1 25/22/1 26/23/1 27/24/1 28/25/1 29/26/1 30/27/1 31/28/1 32/29/1 33/30/1 34/31/1 35/32/1 36/33/1 37/34/1 1/35/1 2/36/1 4/37/1
f 40/38/2 41/39/2 39/40/2 38/41/2 74/42/2 73/43/2 72/44/2 71/45/2 70/46/2 69/47/2 68/48/2 67/49/2 66/50/2 65/51/2 64/52/2 63/53/2 62/54/2 61/55/2 60/56/2 59/57/2 58/58/2 57/59/2 56/60/2 55/61/2 54/62/2 53/63/2 52/64/2 51/65/2 50/66/2 49/67/2 48/68/2 47/69/2 46/70/2 45/71/2 44/72/2 43/73/2 42/74/2
f 6/75/3 43/75/3 44/75/4 7/75/4
f 33/75/5 70/75/5 71/75/6 34/75/6
f 20/75/7 57/75/7 58/75/8 21/75/8
f 7/75/4 44/75/4 45/75/9 8/75/9
f 34/75/6 71/75/6 72/75/10 35/75/10
f 21/75/8 58/75/8 59/75/11 22/75/11
f 8/75/9 45/75/9 46/75/12 9/75/12
f 35/75/13 72/75/13 73/75/14 36/75/14
f 22/75/11 59/75/11 60/75/15 23/75/15
f 9/75/12 46/75/12 47/75/16 10/75/16
f 36/75/14 73/75/14 74/75/17 37/75/17
f 23/75/18 60/75/18 61/75/19 24/75/19
f 10/75/16 47/75/16 48/75/20 11/75/20
f 37/75/17 74/75/17 38/75/21 1/75/21
f 24/75/19 61/75/19 62/75/22 25/75/22
f 11/75/23 48/75/23 49/75/24 12/75/24
f 25/75/22 62/75/22 63/75/25 26/75/25
f 12/75/24 49/75/24 50/75/26 13/75/26
f 26/75/25 63/75/25 64/75/27 27/75/27
f 13/75/26 50/75/26 51/75/28 14/75/28
f 27/75/27 64/75/27 65/75/29 28/75/29
f 14/75/28 51/75/28 52/75/30 15/75/30
f 3/75/31 40/75/31 42/75/32 5/75/32
f 28/75/29 65/75/29 66/75/33 29/75/33
f 15/75/30 52/75/30 53/75/34 16/75/34
f 1/75/35 38/75/35 39/75/35 2/75/35
f 29/75/33 66/75/33 67/75/36 30/75/36
f 16/75/34 53/75/34 54/75/37 17/75/37
f 2/75/38 39/75/38 41/75/38 4/75/38
f 30/75/36 67/75/36 68/75/39 31/75/39
f 17/75/37 54/75/37 55/75/40 18/75/40
f 4/75/41 41/75/41 40/75/31 3/75/31
f 31/75/42 68/75/42 69/75/43 32/75/43
f 18/75/40 55/75/40 56/75/44 19/75/44
f 5/75/32 42/75/32 43/75/45 6/75/45
f 32/75/43 69/75/43 70/75/5 33/75/5
f 19/75/44 56/75/44 57/75/7 20/75/7
