# Blender 4.1.1
# www.blender.org
mtllib Nube01.mtl
o Nube.005
v -1.070192 8.701514 -12.615120
v -0.957119 8.480170 -12.615120
v -1.236239 8.860342 -12.615120
v -0.944461 8.323112 -12.615120
v -1.380628 8.921707 -12.615120
v -1.481700 9.196046 -12.615120
v -1.694674 9.445116 -12.615120
v -2.005109 9.607553 -12.615120
v -2.340813 9.668919 -12.615120
v -2.705395 9.632822 -12.615120
v -2.903929 9.560627 -12.615120
v -3.102463 9.419848 -12.615120
v -3.272120 9.224923 -12.615120
v -3.528410 9.217704 -12.615120
v -3.842455 9.145510 -12.615120
v -4.026551 9.037218 -12.615120
v -4.149282 8.874781 -12.615120
v -4.225086 8.647368 -12.615120
v -4.239525 8.416347 -12.615120
v -4.181769 8.225032 -12.615120
v -4.069868 8.080643 -12.615120
v -3.896601 7.983181 -12.615120
v -3.586166 7.954303 -12.615120
v -3.257681 8.022887 -12.615120
v -3.116902 7.932645 -12.615120
v -2.947246 7.871280 -12.615120
v -2.672907 7.846012 -12.615120
v -2.286667 7.896547 -12.615120
v -1.997890 7.961523 -12.615120
v -1.799355 7.896548 -12.615120
v -1.510578 7.896548 -12.615120
v -1.203752 7.994010 -12.615120
v -1.012437 8.170886 -12.615120
v -1.070192 8.701514 -12.361688
v -0.957119 8.480170 -12.361688
v -1.236239 8.860342 -12.361688
v -0.944461 8.323112 -12.361688
v -1.380628 8.921707 -12.361688
v -1.481700 9.196046 -12.361688
v -1.694674 9.445116 -12.361688
v -2.005109 9.607553 -12.361688
v -2.340813 9.668919 -12.361688
v -2.705395 9.632822 -12.361688
v -2.903929 9.560627 -12.361688
v -3.102463 9.419848 -12.361688
v -3.272120 9.224923 -12.361688
v -3.528410 9.217704 -12.361688
v -3.842455 9.145510 -12.361688
v -4.026551 9.037218 -12.361688
v -4.149282 8.874781 -12.361688
v -4.225086 8.647368 -12.361688
v -4.239525 8.416347 -12.361688
v -4.181769 8.225032 -12.361688
v -4.069868 8.080643 -12.361688
v -3.896601 7.983181 -12.361688
v -3.586166 7.954303 -12.361688
v -3.257681 8.022887 -12.361688
v -3.116902 7.932645 -12.361688
v -2.947246 7.871280 -12.361688
v -2.672907 7.846012 -12.361688
v -2.286667 7.896547 -12.361688
v -1.997890 7.961523 -12.361688
v -1.799355 7.896548 -12.361688
v -1.510578 7.896548 -12.361688
v -1.203752 7.994010 -12.361688
v -1.012437 8.170886 -12.361688
vn -0.0000 -0.0000 -1.0000
vn -0.0000 -0.0000 1.0000
vn 0.6231 0.7821 -0.0000
vn 0.3254 0.9456 -0.0000
vn -0.6533 -0.7571 -0.0000
vn -0.2980 -0.9546 -0.0000
vn 0.0410 0.9992 -0.0000
vn 0.0565 -0.9984 -0.0000
vn -0.2219 0.9751 -0.0000
vn 0.2044 -0.9789 -0.0000
vn -0.4642 0.8857 -0.0000
vn -0.5397 -0.8419 -0.0000
vn -0.4426 -0.8967 -0.0000
vn -0.6711 0.7414 -0.0000
vn -0.2177 -0.9760 -0.0000
vn -0.7543 0.6565 -0.0000
vn 0.0191 -0.9998 -0.0000
vn -0.0282 0.9996 -0.0000
vn -0.1267 0.9919 -0.0000
vn 0.1748 -0.9846 -0.0000
vn -0.3698 0.9291 -0.0000
vn 0.5501 0.8351 -0.0000
vn 0.3911 0.9203 -0.0000
vn 0.2195 -0.9756 -0.0000
vn -0.6652 0.7467 -0.0000
vn 0.9621 0.2729 -0.0000
vn 0.8021 0.5972 -0.0000
vn -0.3110 -0.9504 -0.0000
vn -0.1575 -0.9875 -0.0000
vn -0.8850 0.4657 -0.0000
vn 0.9856 -0.1690 -0.0000
vn 0.1532 -0.9882 -0.0000
vn -0.9816 0.1909 -0.0000
vn 0.5028 -0.8644 -0.0000
vn -0.9934 -0.1151 -0.0000
vn 0.9383 0.3457 -0.0000
vn 0.8627 0.5057 -0.0000
vn 0.8125 -0.5829 -0.0000
vn -0.8887 -0.4584 -0.0000
vt 0.614792 0.646678
vt 0.602421 0.639813
vt 0.587985 0.621351
vt 0.579244 0.601944
vt 0.576443 0.576459
vt 0.585741 0.552002
vt 0.597617 0.536181
vt 0.623365 0.523482
vt 0.647816 0.522514
vt 0.666063 0.532048
vt 0.689077 0.524509
vt 0.721661 0.517163
vt 0.744695 0.519750
vt 0.758696 0.526400
vt 0.771339 0.538318
vt 0.797802 0.529705
vt 0.823730 0.531989
vt 0.838283 0.541404
vt 0.848442 0.557124
vt 0.854472 0.576580
vt 0.854984 0.604293
vt 0.849105 0.631779
vt 0.840809 0.655271
vt 0.823340 0.670670
vt 0.796920 0.680367
vt 0.773526 0.680276
vt 0.761761 0.700558
vt 0.745285 0.718082
vt 0.727791 0.728904
vt 0.703207 0.734449
vt 0.669292 0.728528
vt 0.642195 0.709512
vt 0.624000 0.679190
vt 0.614455 0.647933
vt 0.623301 0.680426
vt 0.641539 0.709715
vt 0.667876 0.728519
vt 0.696216 0.735244
vt 0.726869 0.730313
vt 0.743497 0.721372
vt 0.760040 0.704264
vt 0.774086 0.680758
vt 0.795995 0.681134
vt 0.822857 0.671752
vt 0.838564 0.656857
vt 0.847511 0.637542
vt 0.853614 0.610331
vt 0.854546 0.582796
vt 0.849449 0.560115
vt 0.839850 0.543115
vt 0.825142 0.531810
vt 0.798969 0.528910
vt 0.771395 0.537647
vt 0.759431 0.527145
vt 0.745071 0.520132
vt 0.721942 0.517599
vt 0.689483 0.524287
vt 0.666865 0.532144
vt 0.649800 0.523609
vt 0.619828 0.524872
vt 0.596539 0.537772
vt 0.583611 0.555737
vt 0.576996 0.577410
vt 0.579332 0.601424
vt 0.588047 0.622252
vt 0.602222 0.640877
vt 0.000000 0.000000
s 1
g Nube.005_Material.003
usemtl Material.003
f 5/1/1 3/2/1 1/3/1 2/4/1 4/5/1 33/6/1 32/7/1 31/8/1 30/9/1 29/10/1 28/11/1 27/12/1 26/13/1 25/14/1 24/15/1 23/16/1 22/17/1 21/18/1 20/19/1 19/20/1 18/21/1 17/22/1 16/23/1 15/24/1 14/25/1 13/26/1 12/27/1 11/28/1 10/29/1 9/30/1 8/31/1 7/32/1 6/33/1
f 38/34/2 39/35/2 40/36/2 41/37/2 42/38/2 43/39/2 44/40/2 45/41/2 46/42/2 47/43/2 48/44/2 49/45/2 50/46/2 51/47/2 52/48/2 53/49/2 54/50/2 55/51/2 56/52/2 57/53/2 58/54/2 59/55/2 60/56/2 61/57/2 62/58/2 63/59/2 64/60/2 65/61/2 66/62/2 37/63/2 35/64/2 34/65/2 36/66/2
f 7/67/3 8/67/4 41/67/4 40/67/3
f 21/67/5 22/67/6 55/67/6 54/67/5
f 8/67/4 9/67/7 42/67/7 41/67/4
f 22/67/6 23/67/8 56/67/8 55/67/6
f 9/67/7 10/67/9 43/67/9 42/67/7
f 23/67/8 24/67/10 57/67/10 56/67/8
f 10/67/9 11/67/11 44/67/11 43/67/9
f 24/67/12 25/67/13 58/67/13 57/67/12
f 11/67/11 12/67/14 45/67/14 44/67/11
f 25/67/13 26/67/15 59/67/15 58/67/13
f 12/67/14 13/67/16 46/67/16 45/67/14
f 26/67/15 27/67/17 60/67/17 59/67/15
f 13/67/18 14/67/19 47/67/19 46/67/18
f 27/67/17 28/67/20 61/67/20 60/67/17
f 14/67/19 15/67/21 48/67/21 47/67/19
f 3/67/22 5/67/23 38/67/23 36/67/22
f 28/67/20 29/67/24 62/67/24 61/67/20
f 15/67/21 16/67/25 49/67/25 48/67/21
f 2/67/26 1/67/27 34/67/27 35/67/26
f 29/67/28 30/67/29 63/67/29 62/67/28
f 16/67/25 17/67/30 50/67/30 49/67/25
f 4/67/31 2/67/26 35/67/26 37/67/31
f 30/67/29 31/67/32 64/67/32 63/67/29
f 17/67/30 18/67/33 51/67/33 50/67/30
f 1/67/27 3/67/22 36/67/22 34/67/27
f 31/67/32 32/67/34 65/67/34 64/67/32
f 18/67/33 19/67/35 52/67/35 51/67/33
f 5/67/36 6/67/37 39/67/37 38/67/36
f 32/67/34 33/67/38 66/67/38 65/67/34
f 19/67/35 20/67/39 53/67/39 52/67/35
f 6/67/37 7/67/3 40/67/3 39/67/37
f 33/67/38 4/67/31 37/67/31 66/67/38
f 20/67/39 21/67/5 54/67/5 53/67/39
