# Blender 4.1.1
# www.blender.org
mtllib SoporteCanion.mtl
o Soporte
v 0.809968 1.428806 0.856963
v 0.809968 1.428806 -0.245357
v 0.809968 2.601781 -0.245357
v 0.604525 1.428806 -0.245357
v 0.604525 2.601781 -0.245357
v 0.809968 1.696618 -0.245357
v 0.809968 1.696618 0.856963
v 0.604525 1.696618 0.856963
v 0.604525 1.696618 -0.245357
v 0.809968 1.131119 0.856963
v 0.809968 1.131119 -0.245357
v 0.604525 1.131119 -0.245357
v 0.604525 1.131119 0.856963
v 0.809968 1.931321 -0.245357
v 0.809968 1.931321 0.856963
v 0.604525 1.931321 0.856963
v 0.604525 1.931321 -0.245357
v 0.809968 1.429186 1.384976
v 0.809968 1.696618 1.384976
v 0.604525 1.696618 1.384976
v 0.809968 1.131119 1.384976
v 0.604525 1.131119 1.384976
v 0.809968 1.811616 0.856963
v 0.809968 1.811616 -0.245357
v 0.809968 1.428996 2.051102
v 0.604525 1.429566 1.384976
v 0.809968 1.131119 2.051710
v 0.604525 1.131119 2.051710
v 0.604525 1.429566 2.050494
v 0.809968 2.200664 -0.245357
v 0.604525 2.200664 -0.245357
v 0.604525 2.200664 0.373558
v 0.604525 2.601781 0.373558
v 0.809968 2.601781 0.373558
v 0.809968 2.200664 0.373558
v 0.604525 1.810424 0.856963
v 0.604525 1.811616 -0.245357
v 0.809968 1.809233 0.856963
v 0.809968 1.637708 -0.245357
v 0.809968 1.809233 1.384976
v 0.604525 1.809233 1.384976
v 0.809968 1.637708 0.856963
v 0.604525 1.637708 -0.245357
v 0.809968 1.637915 1.384976
v 0.604525 1.638123 1.384976
v 0.809968 1.637544 1.384976
v 0.809968 1.637354 2.051102
v 0.604525 1.637924 1.384976
v 0.604525 1.637924 2.050494
v -0.809968 1.428806 0.856963
v -0.809968 1.428806 -0.245357
v -0.809968 2.601781 -0.245357
v -0.604525 1.428806 -0.245357
v -0.604525 2.601781 -0.245357
v -0.809968 1.696618 -0.245357
v -0.809968 1.696618 0.856963
v -0.604525 1.696618 0.856963
v -0.604525 1.696618 -0.245357
v -0.809968 1.131119 0.856963
v -0.809968 1.131119 -0.245357
v -0.604525 1.131119 -0.245357
v -0.604525 1.131119 0.856963
v -0.809968 1.931321 -0.245357
v -0.809968 1.931321 0.856963
v -0.604525 1.931321 0.856963
v -0.604525 1.931321 -0.245357
v -0.809968 1.429186 1.384976
v -0.809968 1.696618 1.384976
v -0.604525 1.696618 1.384976
v -0.809968 1.131119 1.384976
v -0.604525 1.131119 1.384976
v -0.809968 1.811616 0.856963
v -0.809968 1.811616 -0.245357
v -0.809968 1.428996 2.051102
v -0.604525 1.429566 1.384976
v -0.809968 1.131119 2.051710
v -0.604525 1.131119 2.051710
v -0.604525 1.429566 2.050494
v -0.809968 2.200664 -0.245357
v -0.604525 2.200664 -0.245357
v -0.604525 2.200664 0.373558
v -0.604525 2.601781 0.373558
v -0.809968 2.601781 0.373558
v -0.809968 2.200664 0.373558
v -0.604525 1.810424 0.856963
v -0.604525 1.811616 -0.245357
v -0.809968 1.809233 0.856963
v -0.809968 1.637708 -0.245357
v -0.809968 1.809233 1.384976
v -0.604525 1.809233 1.384976
v -0.809968 1.637708 0.856963
v -0.604525 1.637708 -0.245357
v -0.809968 1.637915 1.384976
v -0.604525 1.638123 1.384976
v -0.809968 1.637544 1.384976
v -0.809968 1.637354 2.051102
v -0.604525 1.637924 1.384976
v -0.604525 1.637924 2.050494
vn -0.0000 -0.0000 -1.0000
vn 1.0000 -0.0000 -0.0000
vn -0.0000 1.0000 -0.0000
vn -0.0000 -1.0000 -0.0000
vn -1.0000 -0.0000 -0.0000
vn -0.0000 -0.0000 1.0000
vn -0.0015 0.0031 1.0000
vn -0.0000 0.8736 0.4867
vn 0.0029 1.0000 0.0011
vn 0.0023 1.0000 0.0001
vn -0.0030 -0.0000 1.0000
vn 0.0015 0.0031 1.0000
vn -0.0029 1.0000 0.0011
vn -0.0023 1.0000 0.0001
vn 0.0030 -0.0000 1.0000
vn -0.0000 0.0041 1.0000
vt 0.754534 0.684395
vt 0.754534 0.905702
vt 0.841036 0.905702
vt 0.841036 0.684395
vt 0.550004 0.006809
vt 0.722248 0.006809
vt 0.722248 0.272577
vt 0.550004 0.272577
vt 0.754534 0.258540
vt 0.841036 0.258540
vt 0.841036 0.094298
vt 0.754534 0.094298
vt 0.819599 1.002358
vt 0.751364 1.002358
vt 0.751364 0.732995
vt 0.819599 0.732995
vt 0.218562 0.006809
vt 0.218562 0.480156
vt 0.090733 0.480156
vt 0.090733 0.006809
vt 0.298340 1.002115
vt 0.298340 0.520270
vt 0.701660 0.520270
vt 0.701660 1.002115
vt 0.308266 0.006809
vt 0.333563 0.006809
vt 0.333563 0.480156
vt 0.308266 0.480156
vt 0.754534 0.373796
vt 0.754534 0.406299
vt 0.841036 0.406299
vt 0.841036 0.373796
vt 0.754534 1.133678
vt 0.841036 1.133678
vt 0.841036 0.525497
vt 0.754534 0.525497
vt 0.245466 0.258540
vt 0.245466 0.373796
vt 0.245466 0.525497
vt 0.245466 1.133678
vt 0.184466 0.032841
vt 0.136815 0.032841
vt 0.136815 0.489610
vt 0.183973 0.489610
vt 0.345676 0.032841
vt 0.234068 0.032841
vt 0.234068 0.489610
vt 0.345676 0.289301
vt 0.382944 0.006809
vt 0.434346 0.006809
vt 0.434346 0.480156
vt 0.382944 0.480156
vt 0.754534 0.469747
vt 0.754534 0.535791
vt 0.841036 0.535791
vt 0.841036 0.469747
vt 0.841036 0.234178
vt 0.754534 0.234178
vt 0.333563 0.706889
vt 0.308355 0.706889
vt 0.245466 0.094298
vt 0.819599 0.478631
vt 0.819599 0.530729
vt 0.751364 0.530729
vt 0.751364 0.478113
vt 0.218725 0.706889
vt 0.090733 0.706889
vt 0.245466 0.234178
vt 0.218644 0.992929
vt 0.308196 0.706889
vt 0.308114 0.992929
vt 0.841036 -0.133678
vt 0.754534 -0.133678
vt 0.090733 0.993191
vt 0.245466 -0.133678
vt 0.026157 0.708402
vt 0.026157 0.984173
vt 0.112494 0.984173
vt 0.112494 0.708402
vt 0.298340 0.289466
vt 0.298340 -0.001444
vt 0.701660 -0.001444
vt 0.701660 0.289466
vt 0.298340 0.400264
vt 0.298340 0.309100
vt 0.701660 0.309100
vt 0.701660 0.400264
vt 0.819599 0.312109
vt 0.751364 0.312357
vt 0.751364 0.182467
vt 0.819599 0.182467
vt 0.511887 0.032841
vt 0.511887 0.289301
vt 0.751364 0.647952
vt 0.819599 0.647952
vt 0.819599 0.822525
vt 0.751364 0.822525
vt 0.819599 0.522609
vt 0.751364 0.522609
vt 0.136815 0.708402
vt 0.183479 0.708402
vt 0.381920 0.480156
vt 0.381920 0.706889
vt 0.819599 0.292809
vt 0.751364 0.292809
vt 0.751364 0.428582
vt 0.819599 0.428582
vt 0.819599 0.477594
vt 0.751364 0.477594
vt 0.245466 0.406299
vt 0.751364 0.403124
vt 0.819599 0.403034
vt 0.298340 0.425833
vt 0.701660 0.425833
vt 0.751364 0.003164
vt 0.819599 0.002899
vt 0.819599 0.402789
vt 0.751364 0.403037
vt 0.245466 0.684395
vt 0.158964 0.684395
vt 0.158964 0.905702
vt 0.245466 0.905702
vt 1.133678 0.684395
vt 0.792205 0.684395
vt 0.792205 0.905702
vt 1.133678 0.905702
vt 0.158964 0.094298
vt 0.158964 0.258540
vt 0.183693 0.973671
vt 0.183693 0.719497
vt 0.248080 0.719497
vt 0.248080 0.973671
vt 1.133678 0.258540
vt 1.133678 0.094298
vt 0.525497 0.094298
vt 0.525497 0.258540
vt 1.133678 0.373796
vt 0.525497 0.373796
vt 0.525497 0.406299
vt 1.133678 0.406299
vt 0.158964 0.373796
vt 0.158964 0.406299
vt 0.158964 0.525497
vt 0.158964 1.133678
vt 1.133678 0.469747
vt 0.525497 0.469089
vt 0.525497 0.535791
vt 1.133678 0.535791
vt 0.525497 0.469747
vt 0.245466 0.469747
vt 0.158964 0.469747
vt 0.158964 0.535791
vt 0.245466 0.535791
vt 0.158964 0.234178
vt 0.234178 0.373911
vt 0.234178 0.406299
vt 0.183693 0.479477
vt 0.248080 0.478988
vt 0.248080 0.528637
vt 0.183693 0.528637
vt 0.234178 0.094298
vt 0.234178 0.258749
vt -0.133342 0.258645
vt -0.133342 0.373601
vt 0.234178 0.373706
vt 0.158964 -0.133678
vt -0.133678 0.094298
vt 0.234178 0.258959
vt 0.234178 0.373916
vt -0.133007 0.373916
vt -0.133007 0.258959
vt 0.183693 0.322344
vt 0.183693 0.200013
vt 0.248080 0.200013
vt 0.248080 0.322578
vt 0.248080 0.639249
vt 0.248080 0.803979
vt 0.183693 0.803979
vt 0.183693 0.639249
vt 0.183693 0.520975
vt 0.248080 0.520975
vt 0.234178 0.468431
vt 0.525497 0.468431
vt 0.183693 0.304133
vt 0.248080 0.304133
vt 0.248080 0.432250
vt 0.248080 0.478498
vt 0.183693 0.478498
vt 0.183693 0.432250
vt 0.183693 0.408142
vt 0.248080 0.408228
vt 0.183693 0.030571
vt 0.248080 0.030820
vt 0.248080 0.408146
vt 0.183693 0.407912
vt 0.298340 0.178643
vt 0.701660 0.178643
s 0
g Soporte_weathered_planks
usemtl weathered_planks
f 31/1/1 5/2/1 3/3/1 30/4/1
f 30/5/2 3/6/2 34/7/2 35/8/2
f 4/9/1 2/10/1 11/11/1 12/12/1
f 3/13/3 5/14/3 33/15/3 34/16/3
f 2/17/2 1/18/2 10/19/2 11/20/2
f 58/21/3 57/22/3 8/23/3 9/24/3
f 39/25/2 6/26/2 7/27/2 42/28/2
f 43/29/1 9/30/1 6/31/1 39/32/1
f 12/33/4 11/34/4 10/35/4 13/36/4
f 4/9/1 53/37/1 92/38/1 43/29/1
f 13/36/4 62/39/4 61/40/4 12/33/4
f 37/41/5 9/42/5 8/43/5 36/44/5
f 31/45/5 17/46/5 16/47/5 32/48/5
f 24/49/2 14/50/2 15/51/2 23/52/2
f 37/53/1 17/54/1 14/55/1 24/56/1
f 6/26/2 24/49/2 23/52/2 7/27/2
f 13/36/4 10/35/4 21/57/4 22/58/4
f 42/28/2 7/27/2 19/59/2 44/60/2
f 12/12/1 61/61/1 53/37/1 4/9/1
f 9/30/1 37/53/1 24/56/1 6/31/1
f 23/62/6 15/63/6 16/64/6 36/65/6
f 10/19/2 1/18/2 18/66/2 21/67/2
f 22/58/4 71/68/4 62/39/4 13/36/4
f 25/69/2 18/66/2 46/70/2 47/71/2
f 22/58/4 21/57/4 27/72/4 28/73/4
f 21/67/2 18/66/2 25/69/2 27/74/2
f 28/73/4 77/75/4 71/68/4 22/58/4
f 26/76/5 29/77/5 49/78/5 48/79/5
f 75/80/3 78/81/3 29/82/3 26/83/3
f 94/84/6 75/85/6 26/86/6 45/87/6
f 8/23/3 57/22/3 69/80/3 20/83/3
f 25/88/7 29/89/7 28/90/7 27/91/7
f 5/92/5 31/45/5 32/48/5 33/93/5
f 14/50/2 30/5/2 35/8/2 15/51/2
f 17/54/1 31/1/1 30/4/1 14/55/1
f 32/94/6 35/95/6 34/96/6 33/97/6
f 15/98/8 35/16/8 32/15/8 16/99/8
f 17/46/5 37/41/5 36/44/5 16/47/5
f 8/43/5 20/100/5 41/101/5 36/44/5
f 19/59/2 7/27/2 38/102/2 40/103/2
f 40/104/9 38/98/9 36/99/9 41/105/9
f 20/106/6 19/107/6 40/108/6 41/109/6
f 43/29/1 92/38/1 58/110/1 9/30/1
f 19/107/6 20/106/6 45/111/6 44/112/6
f 1/18/2 42/28/2 44/60/2 18/66/2
f 4/9/1 43/29/1 39/32/1 2/10/1
f 2/17/2 39/25/2 42/28/2 1/18/2
f 69/113/6 94/84/6 45/87/6 20/114/6
f 46/104/10 48/105/10 49/115/10 47/116/10
f 29/89/11 25/88/11 47/117/11 49/118/11
f 80/119/1 79/120/1 52/121/1 54/122/1
f 79/123/5 84/124/5 83/125/5 52/126/5
f 53/37/1 61/61/1 60/127/1 51/128/1
f 52/129/3 83/130/3 82/131/3 54/132/3
f 51/133/5 60/134/5 59/135/5 50/136/5
f 88/137/5 91/138/5 56/139/5 55/140/5
f 92/38/1 88/141/1 55/142/1 58/110/1
f 61/40/4 62/39/4 59/143/4 60/144/4
f 86/145/2 85/146/2 57/139/2 58/140/2
f 80/123/2 81/124/2 65/147/2 66/148/2
f 73/145/5 72/149/5 64/147/5 63/148/5
f 86/150/1 73/151/1 63/152/1 66/153/1
f 55/140/5 56/139/5 72/149/5 73/145/5
f 62/39/4 71/68/4 70/154/4 59/143/4
f 91/138/5 93/155/5 68/156/5 56/139/5
f 58/110/1 55/142/1 73/151/1 86/150/1
f 72/157/6 85/158/6 65/159/6 64/160/6
f 59/135/5 70/161/5 67/162/5 50/136/5
f 74/163/5 96/164/5 95/165/5 67/162/5
f 71/68/4 77/75/4 76/166/4 70/154/4
f 70/161/5 76/167/5 74/163/5 67/162/5
f 75/168/2 97/169/2 98/170/2 78/171/2
f 74/172/12 76/173/12 77/174/12 78/175/12
f 54/126/2 82/125/2 81/124/2 80/123/2
f 63/148/5 64/147/5 84/124/5 79/123/5
f 66/153/1 63/152/1 79/120/1 80/119/1
f 81/176/6 82/177/6 83/178/6 84/179/6
f 64/180/8 65/181/8 81/131/8 84/130/8
f 66/148/2 65/147/2 85/146/2 86/145/2
f 57/139/2 85/146/2 90/182/2 69/156/2
f 68/156/5 89/182/5 87/183/5 56/139/5
f 89/184/13 90/185/13 85/181/13 87/180/13
f 69/186/6 90/187/6 89/188/6 68/189/6
f 68/189/6 93/190/6 94/191/6 69/186/6
f 50/136/5 67/162/5 93/155/5 91/138/5
f 53/37/1 51/128/1 88/141/1 92/38/1
f 51/133/5 50/136/5 91/138/5 88/137/5
f 95/184/14 96/192/14 98/193/14 97/185/14
f 78/175/15 98/194/15 96/195/15 74/172/15
f 29/86/16 78/85/16 77/196/16 28/197/16
