# Blender 3.5.1
# www.blender.org
mtllib Mesa.mtl
o Cube.003
v -0.668561 -0.668561 3.106458
v -0.668561 0.668561 3.106458
v -0.668561 -0.668561 -3.106458
v -0.668561 0.668561 -3.106458
v 0.668561 -0.668561 3.106458
v 0.668561 0.668561 3.106458
v 0.668561 -0.668561 -3.106458
v 0.668561 0.668561 -3.106458
v -0.668561 0.484521 3.106458
v -0.668561 0.484521 -3.106458
v 0.668561 0.484521 -3.106458
v 0.668561 0.484521 3.106458
v 0.878669 0.668561 -3.106458
v 0.878669 0.668561 3.106458
v 0.878669 0.484521 -3.106458
v 0.878669 0.484521 3.106458
vn -1.0000 -0.0000 -0.0000
vn -0.0000 -0.0000 -1.0000
vn -0.0000 -0.0000 1.0000
vn -0.0000 -1.0000 -0.0000
vn -0.0000 1.0000 -0.0000
vn 1.0000 -0.0000 -0.0000
vt 0.007897 0.660147
vt 0.466365 0.504031
vt 0.466365 0.645733
vt 0.007897 0.993079
vt 0.007421 0.291395
vt 0.806882 0.661124
vt 0.017359 0.504031
vt 0.017359 0.645733
vt 0.806882 0.994056
vt 0.842188 0.291395
vt 0.466365 0.362329
vt 0.340829 0.660147
vt 0.536523 0.373844
vt 0.007421 0.048283
vt 0.340829 0.993079
vt 0.017359 0.362329
vt 0.977800 0.373844
vt 0.473949 0.661124
vt 0.473949 0.994056
vt 0.842188 0.048283
vt 0.007897 0.947255
vt 0.466365 0.626230
vt 0.806882 0.948232
vt 0.017359 0.626230
vt 0.473949 0.948232
vt 0.977800 0.573875
vt 0.536523 0.573875
vt 0.340829 0.947255
vt 0.421634 0.994056
vt 0.836540 0.353569
vt 0.842188 0.010081
vt 0.014372 0.353569
vt 0.007421 0.010081
vt 0.393145 0.993079
vt 0.421634 0.948232
vt 0.836540 0.298624
vt 0.977800 0.610324
vt 0.014372 0.298624
vt 0.536523 0.610324
vt 0.393145 0.947255
s 0
f 9/22/1 2/3/1 4/8/1 10/24/1
f 10/23/2 4/9/2 8/19/2 11/25/2
f 11/25/2 8/19/2 13/29/2 15/35/2
f 12/28/3 6/15/3 2/4/3 9/21/3
f 3/7/4 7/16/4 5/11/4 1/2/4
f 8/20/5 4/10/5 2/5/5 6/14/5
f 5/12/3 12/28/3 9/21/3 1/1/3
f 7/17/6 11/26/6 12/27/6 5/13/6
f 3/6/2 10/23/2 11/25/2 7/18/2
f 1/2/1 9/22/1 10/24/1 3/7/1
f 15/36/6 13/30/6 14/32/6 16/38/6
f 8/20/5 6/14/5 14/33/5 13/31/5
f 12/27/4 11/26/4 15/37/4 16/39/4
f 6/15/3 12/28/3 16/40/3 14/34/3
