# Blender 3.5.0
# www.blender.org
mtllib Pato.mtl
o Pato
v 1.000000 1.961594 -0.391536
v 1.000000 -0.038406 -0.391536
v 1.000000 1.961594 0.391536
v 1.000000 -0.038406 0.391536
v -1.000000 1.961594 -0.391536
v -1.000000 -0.038406 -0.391536
v -1.000000 1.961594 0.391536
v -1.000000 -0.038406 0.391536
v 1.000000 1.961594 -0.391536
v 1.000000 1.961594 0.391536
v -1.000000 1.961594 -0.391536
v -1.000000 1.961594 0.391536
v 1.358510 6.341821 -0.391536
v 1.358510 6.341821 0.391536
v -1.514676 6.341821 -0.391536
v -1.514676 6.341821 0.391536
v 3.130129 7.280775 -0.391536
v 3.130129 7.280775 0.391536
v -3.286295 7.280775 -0.391536
v -3.286295 7.280775 0.391536
v 3.836994 8.100107 -0.391536
v 3.836994 8.100107 0.391536
v -3.711020 8.100107 -0.391536
v -3.711020 8.100107 0.391536
v 3.836994 9.682144 -0.391536
v 3.836994 9.682144 0.391536
v -3.711020 9.682144 -0.391536
v -3.711020 9.682144 0.391536
v 3.847194 10.545923 -0.391537
v 3.847194 10.545923 0.391536
v -2.896294 10.307045 -0.391536
v -2.896294 10.307045 0.391536
v 0.000000 -0.038406 -0.391536
v 0.000000 1.961594 0.391536
v 0.000000 -0.038406 0.391536
v 0.000000 1.961594 -0.391536
v 0.000000 1.961594 0.391536
v 0.000000 1.961594 -0.391536
v -0.078083 6.341821 0.391536
v -0.078083 6.341821 -0.391536
v -0.078083 7.280775 0.391536
v -0.078083 7.280775 -0.391536
v -0.078083 8.100107 0.391536
v -0.078083 8.100107 -0.391536
v -0.078083 9.682144 0.391536
v -0.078083 9.682144 -0.391536
v -0.078083 10.307045 0.391536
v -0.078083 10.307045 -0.391536
v 0.333333 -0.038406 0.391536
v 0.666667 -0.038406 0.391536
v 0.333333 1.961594 -0.391536
v 0.666667 1.961594 -0.391536
v 0.333333 1.961594 -0.391536
v 0.666667 1.961594 -0.391536
v 0.400781 6.341821 -0.391536
v 0.879646 6.341821 -0.391536
v 0.991321 7.280775 -0.391536
v 2.060725 7.280775 -0.391536
v 1.226943 8.100107 -0.391536
v 2.531968 8.100107 -0.391536
v 1.226943 9.682144 -0.391536
v 2.531968 9.682144 -0.391536
v 1.257544 9.989512 -0.391536
v 2.755385 10.307045 -0.391536
v 0.666667 -0.038406 -0.391536
v 0.333333 -0.038406 -0.391536
v 0.666667 1.961594 0.391536
v 0.333333 1.961594 0.391536
v 0.666667 1.961594 0.391536
v 0.333333 1.961594 0.391536
v 0.879646 6.341821 0.391536
v 0.400781 6.341821 0.391536
v 2.060725 7.280775 0.391536
v 0.991321 7.280775 0.391536
v 2.531968 8.100107 0.391536
v 1.226943 8.100107 0.391536
v 2.531968 9.682144 0.391536
v 1.226943 9.682144 0.391536
v 2.755385 10.307045 0.391536
v 1.257544 9.989512 0.391536
v 0.018421 10.748101 0.391536
v -3.009634 10.748101 0.391536
v -3.009634 10.748101 -0.391536
v 0.018421 10.748101 -0.391536
v 0.416314 11.163474 0.391536
v -3.407528 11.163474 0.391536
v -3.407528 11.163474 -0.391536
v 0.416314 11.163474 -0.391536
v 0.712762 12.203592 0.391536
v -3.969929 11.467014 0.391536
v -3.969929 11.467014 -0.391536
v 0.712762 12.203592 -0.391536
v -0.333333 -0.038406 -0.391536
v -0.666667 -0.038406 -0.391536
v -0.333333 1.961594 0.391536
v -0.666667 1.961594 0.391536
v -0.333333 1.961594 0.391536
v -0.666667 1.961594 0.391536
v -0.556947 6.341821 0.391536
v -1.035811 6.341821 0.391536
v -1.147487 7.280775 0.391536
v -2.216891 7.280775 0.391536
v -1.383109 8.100107 0.391536
v -2.688134 8.100107 0.391536
v -1.383109 9.682144 0.391536
v -2.688134 9.682144 0.391536
v -1.017487 10.307045 0.391536
v -1.956890 10.307045 0.391536
v -0.666667 -0.038406 0.391536
v -0.333333 -0.038406 0.391536
v -0.666667 1.961594 -0.391536
v -0.333333 1.961594 -0.391536
v -0.666667 1.961594 -0.391536
v -0.333333 1.961594 -0.391536
v -1.035811 6.341821 -0.391536
v -0.556947 6.341821 -0.391536
v -2.216891 7.280775 -0.391536
v -1.147487 7.280775 -0.391536
v -2.688134 8.100107 -0.391536
v -1.383109 8.100107 -0.391536
v -2.688134 9.682144 -0.391536
v -1.383109 9.682144 -0.391536
v -1.956890 10.307045 -0.391536
v -1.017486 10.307045 -0.391536
v -0.990931 10.748101 0.391536
v -2.000282 10.748101 0.391536
v -2.000282 10.748101 -0.391536
v -0.990931 10.748101 -0.391536
v -0.858300 11.163474 0.391536
v -2.132914 11.163474 0.391536
v -2.132914 11.163474 -0.391536
v -0.858300 11.163474 -0.391536
v -0.911949 12.026615 0.391536
v -2.913647 12.322042 0.391536
v -2.913647 12.322042 -0.391536
v -0.911949 12.026615 -0.391536
v -0.875416 12.855672 -0.391536
v 0.740162 12.977483 -0.391536
v 0.740162 12.977483 0.391536
v -0.875416 12.855672 0.391536
v -2.948745 13.008945 0.391536
v -2.948745 13.008945 -0.391536
v -1.000000 5.967213 -0.391536
v 1.000000 5.967213 -0.391536
v 1.000000 5.967213 0.391536
v -1.000000 5.967213 0.391536
v 0.000000 5.967213 0.391536
v 0.000000 5.967213 -0.391536
v 0.666667 5.967213 -0.391536
v 0.333333 5.967213 -0.391536
v 0.333333 5.967213 0.391536
v 0.666667 5.967213 0.391536
v -0.666667 5.967213 0.391536
v -0.333333 5.967213 0.391536
v -0.333333 5.967213 -0.391536
v -0.666667 5.967213 -0.391536
v -0.824298 13.760923 -0.391536
v 0.511804 13.627099 -0.391536
v 0.511804 13.627099 0.391536
v -0.824298 13.760923 0.391536
v -2.574312 13.619234 0.391536
v -2.574312 13.619234 -0.391536
v -3.191528 10.937986 -0.391536
v 0.200315 10.937986 -0.391536
v 0.200315 10.937986 0.391536
v -3.191528 10.937986 0.391536
v -2.060914 10.937986 0.391536
v -0.930300 10.937986 0.391536
v -0.930299 10.937986 -0.391536
v -2.060914 10.937986 -0.391536
v -0.344505 10.512828 -0.390980
v -0.344505 10.512828 0.390980
v -2.646708 10.512828 -0.390980
v -2.646708 10.512828 0.390980
v -1.879307 10.512828 0.390980
v -1.111906 10.512828 0.390980
v -1.111906 10.512828 -0.390980
v -1.879307 10.512828 -0.390980
v -3.842591 9.008430 0.391536
v -3.842591 9.008430 -0.391536
v 3.975782 9.008430 0.391536
v 3.975782 9.008430 -0.391536
v -0.079527 9.008430 -0.391536
v -0.079527 9.008430 0.391536
v 2.624013 9.008430 -0.391536
v 1.272243 9.008430 -0.391536
v 1.272243 9.008430 0.391536
v 2.624013 9.008430 0.391536
v -2.783067 9.008430 0.391536
v -1.431296 9.008430 0.391536
v -1.431296 9.008430 -0.391536
v -2.783067 9.008430 -0.391536
v 4.065921 11.591796 -0.391536
v 4.065921 11.591796 0.391536
v 3.382125 10.863301 -0.391536
v 3.382125 10.863301 0.391536
v -0.839325 14.209532 -0.391536
v -0.243590 14.075707 -0.391536
v -0.243590 14.075707 0.391536
v -0.839325 14.209532 0.391536
v -1.783587 14.067842 0.391536
v -1.783587 14.067842 -0.391536
vn -0.0000 1.0000 -0.0000
vn -0.0000 -0.0000 1.0000
vn -1.0000 -0.0000 -0.0000
vn -0.0000 -1.0000 -0.0000
vn 1.0000 -0.0000 -0.0000
vn -0.0000 -0.0000 -1.0000
vn -0.4683 -0.8836 -0.0000
vn 0.7225 -0.6914 -0.0000
vn -0.5885 -0.8085 -0.0000
vn 0.4683 -0.8836 -0.0000
vn -0.9815 0.1917 -0.0000
vn 0.7572 -0.6532 -0.0000
vn -0.8878 -0.4602 -0.0000
vn 0.9794 0.2018 -0.0000
vn 0.5440 -0.8391 -0.0000
vn 0.9999 -0.0118 -0.0000
vn -0.6086 0.7935 -0.0000
vn 0.2313 0.9729 -0.0000
vn -0.2074 0.9783 -0.0000
vn -0.0000 -0.0024 -1.0000
vn -0.5440 -0.8391 -0.0000
vn -0.0000 -0.0024 1.0000
vn 0.9617 -0.2741 -0.0000
vn 0.7221 -0.6918 -0.0000
vn -0.7221 -0.6918 -0.0000
vn -0.6292 0.7773 -0.0000
vn -0.4750 -0.8800 -0.0000
vn -0.9987 -0.0510 -0.0000
vn 0.9434 0.3316 -0.0000
vn 0.9994 -0.0354 -0.0000
vn -0.8524 0.5230 -0.0000
vn -0.7221 -0.6917 -0.0000
vn 0.7221 -0.6917 -0.0000
vn -0.0000 0.0027 -1.0000
vn -0.0000 0.0027 1.0000
vn -0.6362 0.7716 -0.0000
vn 0.6113 0.7914 -0.0000
vn 0.9885 -0.1510 -0.0000
vn -0.9897 -0.1434 -0.0000
vn -0.7291 0.6844 -0.0000
vn 0.9788 -0.2047 -0.0000
vn -0.6638 0.7479 -0.0000
vn 0.2192 0.9757 -0.0000
vn -0.1484 0.9889 -0.0000
vn 0.5106 0.8598 -0.0000
vn -0.4935 0.8698 -0.0000
vt 0.625000 0.500000
vt 0.375000 0.500000
vt 0.625000 0.750000
vt 0.375000 0.750000
vt 0.625000 0.250000
vt 0.125000 0.500000
vt 0.375000 0.250000
vt 0.625000 0.000000
vt 0.625000 1.000000
vt 0.375000 1.000000
vt 0.375000 0.000000
vt 0.125000 0.750000
vt 0.625000 0.500000
vt 0.625000 0.750000
vt 0.625000 0.250000
vt 0.625000 1.000000
vt 0.625000 0.000000
vt 0.625000 0.500000
vt 0.625000 0.750000
vt 0.625000 0.250000
vt 0.625000 0.000000
vt 0.625000 1.000000
vt 0.625000 0.500000
vt 0.625000 0.750000
vt 0.625000 0.250000
vt 0.625000 0.000000
vt 0.625000 1.000000
vt 0.625000 0.500000
vt 0.625000 0.750000
vt 0.625000 0.250000
vt 0.625000 1.000000
vt 0.625000 0.000000
vt 0.625000 0.500000
vt 0.625000 0.750000
vt 0.625000 0.250000
vt 0.625000 0.000000
vt 0.625000 1.000000
vt 0.625000 0.500000
vt 0.625000 0.750000
vt 0.625000 0.250000
vt 0.625000 1.000000
vt 0.625000 0.000000
vt 0.375000 0.375000
vt 0.250000 0.500000
vt 0.625000 0.875000
vt 0.250000 0.750000
vt 0.375000 0.875000
vt 0.625000 0.375000
vt 0.625000 0.875000
vt 0.625000 0.375000
vt 0.625000 0.875000
vt 0.625000 0.375000
vt 0.625000 0.875000
vt 0.625000 0.375000
vt 0.625000 0.875000
vt 0.625000 0.375000
vt 0.625000 0.875000
vt 0.625000 0.375000
vt 0.625000 0.875000
vt 0.750000 0.750000
vt 0.625000 0.375000
vt 0.750000 0.500000
vt 0.375000 0.833333
vt 0.291667 0.750000
vt 0.375000 0.791667
vt 0.333333 0.750000
vt 0.625000 0.416667
vt 0.625000 0.458333
vt 0.625000 0.416667
vt 0.625000 0.458333
vt 0.625000 0.416667
vt 0.625000 0.458333
vt 0.625000 0.416667
vt 0.625000 0.458333
vt 0.625000 0.416667
vt 0.625000 0.458333
vt 0.625000 0.416667
vt 0.625000 0.458333
vt 0.625000 0.416667
vt 0.708333 0.500000
vt 0.625000 0.458333
vt 0.666667 0.500000
vt 0.375000 0.458333
vt 0.333333 0.500000
vt 0.375000 0.416667
vt 0.291667 0.500000
vt 0.625000 0.791667
vt 0.625000 0.833333
vt 0.625000 0.791667
vt 0.625000 0.833333
vt 0.625000 0.791667
vt 0.625000 0.833333
vt 0.625000 0.791667
vt 0.625000 0.833333
vt 0.625000 0.791667
vt 0.625000 0.833333
vt 0.625000 0.791667
vt 0.625000 0.833333
vt 0.625000 0.791667
vt 0.666667 0.750000
vt 0.708333 0.750000
vt 0.625000 0.833333
vt 0.750000 0.750000
vt 0.625000 0.875000
vt 0.625000 1.000000
vt 0.625000 0.000000
vt 0.625000 0.250000
vt 0.625000 0.375000
vt 0.750000 0.500000
vt 0.750000 0.750000
vt 0.625000 0.875000
vt 0.625000 0.000000
vt 0.625000 1.000000
vt 0.625000 0.250000
vt 0.750000 0.500000
vt 0.625000 0.375000
vt 0.625000 0.875000
vt 0.750000 0.750000
vt 0.875000 0.750000
vt 0.625000 0.000000
vt 0.625000 1.000000
vt 0.875000 0.500000
vt 0.625000 0.250000
vt 0.625000 0.375000
vt 0.750000 0.500000
vt 0.208333 0.500000
vt 0.375000 0.333333
vt 0.166667 0.500000
vt 0.375000 0.291667
vt 0.625000 0.916667
vt 0.625000 0.958333
vt 0.625000 0.916667
vt 0.625000 0.958333
vt 0.625000 0.916667
vt 0.625000 0.958333
vt 0.625000 0.916667
vt 0.625000 0.958333
vt 0.625000 0.916667
vt 0.625000 0.958333
vt 0.625000 0.916667
vt 0.625000 0.958333
vt 0.625000 0.916667
vt 0.625000 0.958333
vt 0.166667 0.750000
vt 0.375000 0.958333
vt 0.208333 0.750000
vt 0.375000 0.916667
vt 0.625000 0.291667
vt 0.625000 0.333333
vt 0.625000 0.291667
vt 0.625000 0.333333
vt 0.625000 0.291667
vt 0.625000 0.333333
vt 0.625000 0.291667
vt 0.625000 0.333333
vt 0.625000 0.291667
vt 0.625000 0.333333
vt 0.625000 0.291667
vt 0.625000 0.333333
vt 0.625000 0.291667
vt 0.625000 0.333333
vt 0.625000 0.916667
vt 0.625000 0.958333
vt 0.625000 0.291667
vt 0.625000 0.333333
vt 0.625000 0.916667
vt 0.625000 0.958333
vt 0.625000 0.291667
vt 0.625000 0.333333
vt 0.625000 0.916667
vt 0.833333 0.750000
vt 0.625000 0.958333
vt 0.833333 0.500000
vt 0.625000 0.291667
vt 0.625000 0.333333
vt 0.625000 0.333333
vt 0.750000 0.500000
vt 0.625000 0.375000
vt 0.750000 0.750000
vt 0.625000 0.875000
vt 0.625000 0.916667
vt 0.625000 0.958333
vt 0.833333 0.750000
vt 0.833333 0.500000
vt 0.625000 0.291667
vt 0.625000 0.250000
vt 0.625000 0.500000
vt 0.625000 0.750000
vt 0.625000 1.000000
vt 0.625000 0.000000
vt 0.625000 0.875000
vt 0.625000 0.375000
vt 0.625000 0.458333
vt 0.625000 0.416667
vt 0.625000 0.833333
vt 0.625000 0.791667
vt 0.625000 0.958333
vt 0.625000 0.916667
vt 0.625000 0.333333
vt 0.625000 0.291667
vt 0.625000 0.333333
vt 0.625000 0.375000
vt 0.750000 0.500000
vt 0.625000 0.875000
vt 0.750000 0.750000
vt 0.625000 0.916667
vt 0.625000 0.958333
vt 0.833333 0.750000
vt 0.625000 0.291667
vt 0.833333 0.500000
vt 0.625000 0.250000
vt 0.625000 0.375000
vt 0.750000 0.500000
vt 0.750000 0.750000
vt 0.625000 0.875000
vt 0.625000 1.000000
vt 0.625000 0.000000
vt 0.625000 0.958333
vt 0.625000 0.916667
vt 0.625000 0.333333
vt 0.625000 0.291667
vt 0.625000 0.360018
vt 0.750000 0.529964
vt 0.625000 0.889982
vt 0.750000 0.720036
vt 0.625000 0.264982
vt 0.625000 0.985018
vt 0.625000 0.029964
vt 0.625000 0.953339
vt 0.625000 0.921661
vt 0.625000 0.328339
vt 0.625000 0.296661
vt 0.625000 1.005359
vt 0.625000 0.000000
vt 0.625000 0.250000
vt 0.625000 0.750000
vt 0.625000 0.500000
vt 0.625000 0.374954
vt 0.625000 0.875046
vt 0.625000 0.461272
vt 0.625000 0.418113
vt 0.625000 0.831887
vt 0.625000 0.788728
vt 0.625000 0.962200
vt 0.625000 0.918205
vt 0.625000 0.331795
vt 0.625000 0.287800
vt 0.625000 0.500000
vt 0.625000 0.750000
vt 0.625000 0.458333
vt 0.666667 0.500000
vt 0.625000 0.791667
vt 0.666667 0.750000
vt 0.791667 0.500000
vt 0.625000 0.333333
vt 0.625000 0.375000
vt 0.750000 0.500000
vt 0.625000 0.875000
vt 0.750000 0.750000
vt 0.791667 0.750000
vt 0.625000 0.916667
vt 0.625000 0.958333
vt 0.833333 0.750000
vt 0.625000 0.291667
vt 0.833333 0.500000
s 0
usemtl pato.001
f 67/87/1 3/3/1 10/14/1 69/89/1
f 109/145/2 96/131/2 7/9/2 8/10/2
f 8/11/3 7/8/3 5/5/3 6/7/3
f 65/84/4 2/2/4 4/4/4 50/66/4
f 2/2/5 1/1/5 3/3/5 4/4/5
f 65/83/6 52/68/6 1/1/6 2/2/6
f 156/200/6 143/186/6 15/20/6 115/152/6
f 5/5/1 7/8/1 12/17/1 11/15/1
f 3/3/1 1/1/1 9/13/1 10/14/1
f 111/148/1 5/5/1 11/15/1 113/150/1
f 15/20/7 16/21/7 20/26/7 19/25/7
f 145/188/8 144/187/8 13/18/8 14/19/8
f 143/186/9 146/190/9 16/21/9 15/20/9
f 152/196/2 145/188/2 14/19/2 71/91/2
f 117/154/6 19/25/6 23/30/6 119/156/6
f 71/91/2 14/19/2 18/24/2 73/93/2
f 115/152/6 15/20/6 19/25/6 117/154/6
f 14/19/10 13/18/10 17/23/10 18/24/10
f 180/235/11 179/234/11 28/36/11 27/35/11
f 18/24/12 17/23/12 21/28/12 22/29/12
f 19/25/13 20/26/13 24/32/13 23/30/13
f 73/93/2 18/24/2 22/29/2 75/95/2
f 121/158/6 27/35/6 31/40/6 123/160/6
f 188/243/2 181/236/2 26/34/2 77/97/2
f 192/247/6 180/235/6 27/35/6 121/158/6
f 181/236/14 182/237/14 25/33/14 26/34/14
f 172/225/15 171/223/15 84/109/15 81/103/15
f 26/34/16 25/33/16 29/38/16 30/39/16
f 27/35/17 28/36/17 32/42/17 31/40/17
f 77/97/2 26/34/2 30/39/2 79/99/2
f 105/140/2 45/57/2 47/59/2 107/142/2
f 63/80/18 48/62/18 47/60/18 80/101/18
f 186/241/6 183/238/6 46/58/6 61/77/6
f 190/245/2 184/239/2 45/57/2 105/140/2
f 61/77/6 46/58/6 48/61/6 63/79/6
f 101/136/2 41/53/2 43/55/2 103/138/2
f 55/71/6 40/52/6 42/54/6 57/73/6
f 99/134/2 39/51/2 41/53/2 101/136/2
f 57/73/6 42/54/6 44/56/6 59/75/6
f 154/198/2 147/191/2 39/51/2 99/134/2
f 51/67/1 36/48/1 38/50/1 53/69/1
f 150/194/6 148/192/6 40/52/6 55/71/6
f 93/127/6 112/149/6 36/48/6 33/43/6
f 93/126/4 33/44/4 35/46/4 110/146/4
f 49/63/2 68/88/2 34/45/2 35/47/2
f 95/130/1 34/45/1 37/49/1 97/132/1
f 4/4/2 3/3/2 67/87/2 50/65/2
f 50/65/2 67/87/2 68/88/2 49/63/2
f 144/187/6 149/193/6 56/72/6 13/18/6
f 149/193/6 150/194/6 55/71/6 56/72/6
f 1/1/1 52/68/1 54/70/1 9/13/1
f 52/68/1 51/67/1 53/69/1 54/70/1
f 17/23/6 58/74/6 60/76/6 21/28/6
f 58/74/6 57/73/6 59/75/6 60/76/6
f 13/18/6 56/72/6 58/74/6 17/23/6
f 56/72/6 55/71/6 57/73/6 58/74/6
f 25/33/6 62/78/6 64/81/6 29/38/6
f 62/78/6 61/77/6 63/79/6 64/81/6
f 182/237/6 185/240/6 62/78/6 25/33/6
f 185/240/6 186/241/6 61/77/6 62/78/6
f 29/38/6 64/81/6 195/250/6 193/248/6
f 64/82/19 63/80/19 80/101/19 79/100/19
f 45/57/2 78/98/2 80/102/2 47/59/2
f 78/98/2 77/97/2 79/99/2 80/102/2
f 184/239/2 187/242/2 78/98/2 45/57/2
f 187/242/2 188/243/2 77/97/2 78/98/2
f 41/53/2 74/94/2 76/96/2 43/55/2
f 74/94/2 73/93/2 75/95/2 76/96/2
f 39/51/2 72/92/2 74/94/2 41/53/2
f 72/92/2 71/91/2 73/93/2 74/94/2
f 147/191/2 151/195/2 72/92/2 39/51/2
f 151/195/2 152/196/2 71/91/2 72/92/2
f 33/43/6 36/48/6 51/67/6 66/85/6
f 66/85/6 51/67/6 52/68/6 65/83/6
f 33/44/4 66/86/4 49/64/4 35/46/4
f 66/86/4 65/84/4 50/66/4 49/64/4
f 34/45/1 68/88/1 70/90/1 37/49/1
f 68/88/1 67/87/1 69/89/1 70/90/1
f 170/221/6 163/211/6 87/114/6 131/168/6
f 178/232/20 173/226/20 83/107/20 127/164/20
f 173/226/21 174/228/21 82/106/21 83/107/21
f 176/230/22 172/224/22 81/104/22 125/162/22
f 85/110/23 88/115/23 92/125/23 89/118/23
f 168/219/2 165/215/2 85/111/2 129/166/2
f 165/214/24 164/213/24 88/115/24 85/110/24
f 163/211/25 166/217/25 86/112/25 87/114/25
f 135/173/26 91/122/26 90/119/26 134/171/26
f 87/114/27 86/112/27 90/120/27 91/123/27
f 131/168/6 87/114/6 91/123/6 135/174/6
f 129/166/2 85/111/2 89/117/2 133/170/2
f 86/113/2 130/167/2 134/172/2 90/121/2
f 130/167/2 129/166/2 133/170/2 134/172/2
f 88/116/6 132/169/6 136/175/6 92/124/6
f 132/169/6 131/168/6 135/174/6 136/175/6
f 135/173/28 134/171/28 141/183/28 142/184/28
f 133/170/2 89/117/2 139/180/2 140/181/2
f 166/216/2 167/218/2 130/167/2 86/113/2
f 167/218/2 168/219/2 129/166/2 130/167/2
f 174/227/22 175/229/22 126/163/22 82/105/22
f 175/229/22 176/230/22 125/162/22 126/163/22
f 171/222/20 177/231/20 128/165/20 84/108/20
f 177/231/20 178/232/20 127/164/20 128/165/20
f 164/212/6 169/220/6 132/169/6 88/116/6
f 169/220/6 170/221/6 131/168/6 132/169/6
f 7/9/1 96/131/1 98/133/1 12/16/1
f 96/131/1 95/130/1 97/132/1 98/133/1
f 6/6/4 94/128/4 109/144/4 8/12/4
f 94/128/4 93/126/4 110/146/4 109/144/4
f 6/7/6 5/5/6 111/148/6 94/129/6
f 94/129/6 111/148/6 112/149/6 93/127/6
f 146/189/2 153/197/2 100/135/2 16/22/2
f 153/197/2 154/198/2 99/134/2 100/135/2
f 16/22/2 100/135/2 102/137/2 20/27/2
f 100/135/2 99/134/2 101/136/2 102/137/2
f 20/27/2 102/137/2 104/139/2 24/31/2
f 102/137/2 101/136/2 103/138/2 104/139/2
f 179/233/2 189/244/2 106/141/2 28/37/2
f 189/244/2 190/245/2 105/140/2 106/141/2
f 28/37/2 106/141/2 108/143/2 32/41/2
f 106/141/2 105/140/2 107/142/2 108/143/2
f 183/238/6 191/246/6 122/159/6 46/58/6
f 191/246/6 192/247/6 121/158/6 122/159/6
f 46/58/6 122/159/6 124/161/6 48/61/6
f 122/159/6 121/158/6 123/160/6 124/161/6
f 40/52/6 116/153/6 118/155/6 42/54/6
f 116/153/6 115/152/6 117/154/6 118/155/6
f 42/54/6 118/155/6 120/157/6 44/56/6
f 118/155/6 117/154/6 119/156/6 120/157/6
f 36/48/1 112/149/1 114/151/1 38/50/1
f 112/149/1 111/148/1 113/150/1 114/151/1
f 148/192/6 155/199/6 116/153/6 40/52/6
f 155/199/6 156/200/6 115/152/6 116/153/6
f 35/47/2 34/45/2 95/130/2 110/147/2
f 110/147/2 95/130/2 96/131/2 109/145/2
f 139/179/29 138/177/29 158/203/29 159/205/29
f 141/182/2 140/181/2 160/206/2 161/207/2
f 92/124/6 136/175/6 137/176/6 138/178/6
f 136/175/6 135/174/6 142/185/6 137/176/6
f 134/172/2 133/170/2 140/181/2 141/182/2
f 89/118/30 92/125/30 138/177/30 139/179/30
f 114/151/6 113/150/6 156/200/6 155/199/6
f 38/50/6 114/151/6 155/199/6 148/192/6
f 98/133/2 97/132/2 154/198/2 153/197/2
f 12/16/2 98/133/2 153/197/2 146/189/2
f 70/90/2 69/89/2 152/196/2 151/195/2
f 37/49/2 70/90/2 151/195/2 147/191/2
f 54/70/6 53/69/6 150/194/6 149/193/6
f 9/13/6 54/70/6 149/193/6 144/187/6
f 53/69/6 38/50/6 148/192/6 150/194/6
f 97/132/2 37/49/2 147/191/2 154/198/2
f 69/89/2 10/14/2 145/188/2 152/196/2
f 11/15/3 12/17/3 146/190/3 143/186/3
f 10/14/5 9/13/5 144/187/5 145/188/5
f 113/150/6 11/15/6 143/186/6 156/200/6
f 160/206/2 159/204/2 199/258/2 200/261/2
f 157/201/6 162/209/6 202/264/6 197/255/6
f 142/184/31 141/183/31 161/208/31 162/210/31
f 137/176/6 142/185/6 162/209/6 157/201/6
f 140/181/2 139/180/2 159/204/2 160/206/2
f 138/178/6 137/176/6 157/201/6 158/202/6
f 128/165/6 127/164/6 170/221/6 169/220/6
f 84/108/6 128/165/6 169/220/6 164/212/6
f 126/163/2 125/162/2 168/219/2 167/218/2
f 82/105/2 126/163/2 167/218/2 166/216/2
f 83/107/32 82/106/32 166/217/32 163/211/32
f 81/103/33 84/109/33 164/213/33 165/214/33
f 125/162/2 81/104/2 165/215/2 168/219/2
f 127/164/6 83/107/6 163/211/6 170/221/6
f 124/161/34 123/160/34 178/232/34 177/231/34
f 48/61/34 124/161/34 177/231/34 171/222/34
f 108/143/35 107/142/35 176/230/35 175/229/35
f 32/41/35 108/143/35 175/229/35 174/227/35
f 107/142/35 47/59/35 172/224/35 176/230/35
f 31/40/36 32/42/36 174/228/36 173/226/36
f 123/160/34 31/40/34 173/226/34 178/232/34
f 47/60/37 48/62/37 171/223/37 172/225/37
f 120/157/6 119/156/6 192/247/6 191/246/6
f 44/56/6 120/157/6 191/246/6 183/238/6
f 104/139/2 103/138/2 190/245/2 189/244/2
f 24/31/2 104/139/2 189/244/2 179/233/2
f 76/96/2 75/95/2 188/243/2 187/242/2
f 43/55/2 76/96/2 187/242/2 184/239/2
f 60/76/6 59/75/6 186/241/6 185/240/6
f 21/28/6 60/76/6 185/240/6 182/237/6
f 103/138/2 43/55/2 184/239/2 190/245/2
f 59/75/6 44/56/6 183/238/6 186/241/6
f 22/29/38 21/28/38 182/237/38 181/236/38
f 119/156/6 23/30/6 180/235/6 192/247/6
f 75/95/2 22/29/2 181/236/2 188/243/2
f 23/30/39 24/32/39 179/234/39 180/235/39
f 193/248/40 195/251/40 196/253/40 194/249/40
f 30/39/41 29/38/41 193/248/41 194/249/41
f 79/99/2 30/39/2 194/249/2 196/252/2
f 64/82/42 79/100/42 196/253/42 195/251/42
f 198/257/43 197/254/43 200/260/43 199/259/43
f 197/254/44 202/265/44 201/263/44 200/260/44
f 158/202/6 157/201/6 197/255/6 198/256/6
f 161/207/2 160/206/2 200/261/2 201/262/2
f 159/205/45 158/203/45 198/257/45 199/259/45
f 162/210/46 161/208/46 201/263/46 202/265/46
